<svg xmlns="http://www.w3.org/2000/svg" viewBox="0 0 512 512">
  <defs>
    <linearGradient id="bg" x1="0%" y1="0%" x2="100%" y2="100%">
      <stop offset="0%" style="stop-color:#0f1a0f"/>
      <stop offset="100%" style="stop-color:#0a1208"/>
    </linearGradient>
    <linearGradient id="green" x1="0%" y1="0%" x2="100%" y2="100%">
      <stop offset="0%" style="stop-color:#4ade80"/>
      <stop offset="100%" style="stop-color:#16a34a"/>
    </linearGradient>
    <linearGradient id="arrow" x1="0%" y1="100%" x2="100%" y2="0%">
      <stop offset="0%" style="stop-color:#22c55e"/>
      <stop offset="100%" style="stop-color:#86efac"/>
    </linearGradient>
  </defs>

  <rect width="512" height="512" rx="112" fill="url(#bg)"/>

  <line x1="96" y1="160" x2="416" y2="160" stroke="#1a2e1a" stroke-width="1.5"/>
  <line x1="96" y1="224" x2="416" y2="224" stroke="#1a2e1a" stroke-width="1.5"/>
  <line x1="96" y1="288" x2="416" y2="288" stroke="#1a2e1a" stroke-width="1.5"/>
  <line x1="96" y1="352" x2="416" y2="352" stroke="#1a2e1a" stroke-width="1.5"/>

  <rect x="108" y="320" width="52" height="64" rx="8" fill="#16a34a" opacity="0.6"/>
  <rect x="176" y="272" width="52" height="112" rx="8" fill="#16a34a" opacity="0.7"/>
  <rect x="244" y="216" width="52" height="168" rx="8" fill="#22c55e" opacity="0.85"/>
  <rect x="312" y="156" width="52" height="228" rx="8" fill="url(#green)"/>

  <polyline
    points="134,312 202,264 270,208 338,148"
    fill="none"
    stroke="url(#arrow)"
    stroke-width="8"
    stroke-linecap="round"
    stroke-linejoin="round"
  />

  <circle cx="338" cy="148" r="12" fill="#4ade80"/>
  <circle cx="338" cy="148" r="6" fill="#ffffff"/>

  <text
    x="100"
    y="468"
    font-family="system-ui, -apple-system, sans-serif"
    font-weight="800"
    font-size="52"
    letter-spacing="-2"
    fill="#4ade80"
    opacity="0.9"
  >BC</text>
</svg>
